<svg id="SvgjsSvg1001" width="288" height="288" xmlns="http://www.w3.org/2000/svg" version="1.1" xmlns:xlink="http://www.w3.org/1999/xlink" xmlns:svgjs="http://svgjs.com/svgjs"><defs id="SvgjsDefs1002"></defs><g id="SvgjsG1008"><svg xmlns="http://www.w3.org/2000/svg" viewBox="0 0 24 24" width="288" height="288"><path d="M18,2H6A1,1,0,0,0,5,3V21a1,1,0,0,0,1.65.76L12,17.27l5.29,4.44A1,1,0,0,0,18,22a.84.84,0,0,0,.38-.08A1,1,0,0,0,19,21V3A1,1,0,0,0,18,2ZM17,18.86,12.64,15.2a1,1,0,0,0-1.28,0L7,18.86V4H17Z" fill="#ffffff" class="color000 svgShape"></path></svg></g></svg>